<mxfile host="app.diagrams.net" modified="2024-02-14T08:18:05.965Z" agent="Mozilla/5.0 (Windows NT 10.0; Win64; x64) AppleWebKit/537.36 (KHTML, like Gecko) Chrome/121.0.0.0 Safari/537.36" version="23.0.2" etag="cSPk_Cn0XN6N-h18bqwa" type="github">
  <diagram name="ページ1" id="TRxcx3un_tXetuHxJzqi">
    <mxGraphModel>
      <root>
        <mxCell id="0" />
        <mxCell id="1" parent="0" />
      </root>
    </mxGraphModel>
  </diagram>
</mxfile>
